<svg xmlns="http://www.w3.org/2000/svg" width="295.709" height="291.918" viewBox="0 0 295.709 291.918">
  <g id="hospital-patient" transform="translate(29.674 3.88)">
    <path id="Path_4" data-name="Path 4" d="M91.114,164.14c11.956,35.382,61.923,36.682,73.158,0C177.5,176.1,216.635,178.505,231.2,186.669a37.848,37.848,0,0,1,12.1,10.316c5.067,6.735,8.183,15.538,9.031,26.728l3.032,25.066c-.742,7.908-5.194,12.469-13.991,13.13H13.991C5.215,261.227.742,256.687,0,248.779l3.031-25.066c.848-11.169,3.964-19.972,9.031-26.728a38.074,38.074,0,0,1,12.1-10.316c14.585-8.163,53.719-10.551,66.947-22.529ZM194.46,201.887h7.653a2.613,2.613,0,0,1,2.607,2.622V216h11.426a2.626,2.626,0,0,1,2.607,2.622v7.695a2.626,2.626,0,0,1-2.607,2.622H204.721v11.488a2.626,2.626,0,0,1-2.607,2.622H194.46a2.626,2.626,0,0,1-2.607-2.622V228.935H180.426a2.626,2.626,0,0,1-2.607-2.622v-7.695A2.626,2.626,0,0,1,180.426,216h11.426V204.509a2.613,2.613,0,0,1,2.607-2.622ZM81.956,78.477a11.082,11.082,0,0,0-5.7,1.492,4.385,4.385,0,0,0-1.632,1.9,6.818,6.818,0,0,0-.53,3.048C74.2,88.367,76,92.907,79.476,98.107l.042.085h0l11.32,18.1c4.537,7.247,9.285,14.643,15.2,20.078,5.681,5.222,12.571,8.76,21.687,8.782a31.885,31.885,0,0,0,22.959-9.165c6.105-5.734,10.9-13.6,15.645-21.464l12.741-21.1c2.374-5.456,3.243-9.1,2.692-11.233-.318-1.279-1.717-1.9-4.113-2.025-.509-.021-1.018-.021-1.548-.021-.572.021-1.166.064-1.781.107a3.637,3.637,0,0,1-.975-.064,17.776,17.776,0,0,1-3.5-.192l4.367-19.417c-32.392,5.137-56.6-19.055-90.839-4.838l2.48,22.913a19.284,19.284,0,0,1-3.9-.171Zm100.06-4.071a8.228,8.228,0,0,1,5.978,6.2c.912,3.581-.085,8.632-3.1,15.538h0c-.064.128-.127.256-.191.362L171.8,117.866c-4.961,8.227-10.006,16.476-16.747,22.806a37.954,37.954,0,0,1-27.326,10.913c-10.981-.021-19.228-4.242-26.011-10.465-6.551-6.011-11.554-13.79-16.3-21.378l-11.32-18.1c-4.134-6.2-6.3-11.872-6.423-16.519a13.381,13.381,0,0,1,1.1-5.925,10.953,10.953,0,0,1,3.879-4.54,13.792,13.792,0,0,1,2.735-1.407,285.017,285.017,0,0,1-.53-32.526,45.6,45.6,0,0,1,1.4-7.375c2.883-10.38,10.133-18.735,19.122-24.49a51.771,51.771,0,0,1,10.282-5.03c21.75-7.908,50.56-3.6,65.993,13.172,6.275,6.842,10.218,15.9,11.066,27.879l-.7,29.52Z" transform="translate(0 0)" fill="rgba(0,0,0,0.25)" fill-rule="evenodd"/>
    <path id="Path_5" data-name="Path 5" d="M43.468,260.028,304.146,0" transform="translate(-66.071 10.512)" fill="none" stroke="#b8b8b8" stroke-linecap="round" stroke-width="10"/>
    <line id="Line_2" data-name="Line 2" y1="284.845" x2="285" transform="translate(-22.5 -0.343)" fill="none" stroke="#f5f5f5" stroke-width="10"/>
  </g>
</svg>
