<svg xmlns="http://www.w3.org/2000/svg" width="413.692" height="501.918" viewBox="0 0 413.692 501.918">
  <g id="favicon" transform="translate(-744.92 -275.53)">
    <path id="Path_13" data-name="Path 13" d="M957.03,733.9c4.65-1.06,9.43-1.74,13.94-3.23,36.91-12.24,72.98-26.49,105.76-47.74,12.04-7.8,23.13-17.07,34.67-25.65.18-.13.59.05,1.32.15-1.96,6.08-5.43,11.2-9.17,16.1-15.66,20.52-34.69,37.43-56.01,51.84-27.51,18.59-56.77,34.14-86.1,49.6-6.51,3.43-11.37,3.22-17.7-.14-39.57-21.02-78.52-42.96-114.52-69.83-35.27-26.33-60.98-59.67-75.09-101.56-5.81-17.24-9.24-34.89-9.21-53.24q.225-134.745.09-269.49v-5.12h30.25v21.96h42.35V275.67h30.37v21.81h42.48V275.77h30.67v5.43q0,118.275.07,236.56a90.074,90.074,0,0,0,1.69,14.78c2.99,17.74,22.86,24.51,34.98,22.2a47.764,47.764,0,0,0,21.43-9.93c.99-.8,2.1-1.43,3.7-2.5-1.97,23.09-11.98,40.98-30.2,54.58,5.7.92,20.37-2.62,32.38-8.46,10.04-4.88,19.69-10.58,30.56-16.48-1.3,4.25-2.17,7.88-3.52,11.32-3.44,8.76-8.94,16.24-15.22,23.15a217.023,217.023,0,0,1-37.56,32.48,16.2,16.2,0,0,0-3.61,3.16c15.83-4.42,30.83-10.99,45.59-17.98,14.63-6.93,28.82-14.81,43.38-22.36,1.03,1.87-.59,3.58-1.63,5.29-7.51,12.43-16.82,23.47-26.65,34.08-14.78,15.96-32.28,28.51-50.61,40a32.791,32.791,0,0,0-6.24,4.87c14.43-3.06,27.82-9.06,41.27-14.74q20.13-8.5,39.81-18.08c13.24-6.45,26.01-13.79,38.23-23.61a16.538,16.538,0,0,1-.7,3.58c-8.18,16.22-17.13,32.1-31.27,43.85a313.3,313.3,0,0,1-35.38,25.65c-16.33,10.1-33.47,18.9-50.23,28.3a45.991,45.991,0,0,0-4.29,3.08c-.47.09-.93.17-.25.05C956.34,734.43,956.68,734.16,957.03,733.9Z" fill="#02559d"/>
    <path id="Path_14" data-name="Path 14" d="M1118.82,646.62c1.48-4.47,3.08-8.9,4.42-13.42a169.048,169.048,0,0,0,7.43-48.55q-.135-151.74-.08-303.48v-5.64h27.98v5.18c-.01,90.51.15,181.02-.1,271.53-.09,32.97-10.99,62.41-31.56,88.23a69.516,69.516,0,0,1-4.53,5.3,12.077,12.077,0,0,1-2.76,1.67C1119.35,647.18,1119.08,646.9,1118.82,646.62Z" fill="#05579e"/>
    <path id="Path_15" data-name="Path 15" d="M1093.9,298.77h27.64c.12,1.56.32,2.98.32,4.41.01,77.53.26,155.06-.13,232.59-.12,24.05-5.42,47.19-18.71,67.76-3.56,5.51-8.27,10.31-12.67,15.25-1.15,1.29-3.09,1.88-4.67,2.79-.26-.27-.51-.54-.77-.82.7-2.12,1.5-4.2,2.07-6.35a209.322,209.322,0,0,0,7-53.68q-.2-127.785-.07-255.56C1093.9,303.21,1093.9,301.25,1093.9,298.77Z" fill="#03559c"/>
    <path id="Path_16" data-name="Path 16" d="M1050.96,591.67c5.27-13.84,6.77-28.21,6.76-42.9q-.12-134.205-.01-268.42v-4.76h27.78v4.66c0,78.66.23,157.33-.13,235.99-.13,27.88-9.43,52.68-29.05,73.09a35.439,35.439,0,0,1-4.38,3.35C1051.61,592.34,1051.29,592.01,1050.96,591.67Z" fill="#04569d"/>
    <path id="Path_17" data-name="Path 17" d="M1017.99,567.4c.48-3.25.97-5.84,1.22-8.46.68-7.26,1.79-14.53,1.8-21.8q.2-116.52.08-233.03v-5.19h27.89v5.29q0,94.815.07,189.62c.03,12.35-.24,24.56-4.06,36.46-4.69,14.62-12.6,26.98-25,36.25A14.819,14.819,0,0,1,1017.99,567.4Z" fill="#03569d"/>
    <path id="Path_18" data-name="Path 18" d="M1012.77,275.58c0,19.28-.01,38.06,0,56.84.03,49.87.28,99.74-.02,149.61-.11,18.05-7.12,33.89-18.83,47.58-2.85,3.33-6.04,6.37-9.33,9.82V275.58Z" fill="#04579e"/>
    <path id="Path_19" data-name="Path 19" d="M957.03,733.9c-.35.27-.69.53-.17.13-.68.13-.22.04.25-.05Z" fill="#fdfefe"/>
  </g>
</svg>
