<svg xmlns="http://www.w3.org/2000/svg" width="1220.204" height="909.199" viewBox="0 0 1220.204 909.199">
  <g id="_3828535" data-name="3828535" transform="translate(0 -0.05)">
    <g id="Background_Complete" data-name="Background Complete" transform="translate(0 0.05)">
      <rect id="Rectangle_1" data-name="Rectangle 1" width="1220.204" height="0.61" transform="translate(0 798.99)" fill="#ebebeb"/>
      <rect id="Rectangle_2" data-name="Rectangle 2" width="52.908" height="0.61" transform="translate(1045.032 838.256)" fill="#ebebeb"/>
      <rect id="Rectangle_3" data-name="Rectangle 3" width="83.242" height="0.61" transform="translate(757.893 825.59)" fill="#ebebeb"/>
      <rect id="Rectangle_4" data-name="Rectangle 4" width="108.671" height="0.61" transform="translate(967.841 815.609)" fill="#ebebeb"/>
      <rect id="Rectangle_5" data-name="Rectangle 5" width="27.186" height="0.61" transform="translate(395.053 827.908)" fill="#ebebeb"/>
      <rect id="Rectangle_6" data-name="Rectangle 6" width="93.687" height="0.61" transform="translate(279.622 827.908)" fill="#ebebeb"/>
      <rect id="Rectangle_7" data-name="Rectangle 7" width="67.599" height="0.61" transform="translate(161.823 817.61)" fill="#ebebeb"/>
      <path id="Path_1" data-name="Path 1" d="M523.339,745.147H52.12a13.935,13.935,0,0,1-13.91-13.935V68.813A13.935,13.935,0,0,1,52.12,55H523.339a13.935,13.935,0,0,1,13.935,13.935V731.213A13.935,13.935,0,0,1,523.339,745.147ZM52.12,55.488a13.325,13.325,0,0,0-13.3,13.325v662.4a13.325,13.325,0,0,0,13.3,13.325H523.339a13.349,13.349,0,0,0,13.325-13.325V68.813a13.349,13.349,0,0,0-13.325-13.325Z" transform="translate(55.038 -55)" fill="#ebebeb"/>
      <path id="Path_2" data-name="Path 2" d="M739.677,745.147H268.435A13.959,13.959,0,0,1,254.5,731.213V68.813A13.959,13.959,0,0,1,268.435,55H739.677a13.935,13.935,0,0,1,13.886,13.813v662.4A13.935,13.935,0,0,1,739.677,745.147ZM268.435,55.488A13.349,13.349,0,0,0,255.11,68.813v662.4a13.349,13.349,0,0,0,13.325,13.324H739.677A13.349,13.349,0,0,0,753,731.213V68.813a13.349,13.349,0,0,0-13.325-13.325Z" transform="translate(366.584 -55)" fill="#ebebeb"/>
      <path id="Path_3" data-name="Path 3" d="M467.45,340.542l1.1-32.067-19.67-6.443a193.283,193.283,0,0,0-5.271-32.213l16.692-12.2L448.976,227.5l-20.646,1.659a190.766,190.766,0,0,0-17.083-27.7l10.689-17.839-21.964-23.452-18.45,9.444a199.578,199.578,0,0,0-26.5-19.133l2.977-20.5-29.285-13.276-13.422,15.716a196.84,196.84,0,0,0-31.725-7.321l-4.881-20.085-32.165-1.1-6.345,19.694a196.4,196.4,0,0,0-32.189,5.247l-12.4-16.595-30.115,11.25,1.659,20.646a195.554,195.554,0,0,0-27.7,17.254l-17.961-10.933-23.55,21.964,9.444,18.547a189.4,189.4,0,0,0-19.035,26.454l-20.475-3.075L54.484,243.658l15.814,13.4a191.664,191.664,0,0,0-7.321,31.725l-20.329,5.1-1.1,32.067,19.767,6.443a188.887,188.887,0,0,0,5.247,32.189l-16.692,12.2L61.22,406.921l20.646-1.66a187.914,187.914,0,0,0,17.083,27.7L88.235,450.8,110.2,474.252l18.449-9.444A197.044,197.044,0,0,0,155.1,483.916l-3.075,20.475,29.285,13.3,13.5-15.716a199.459,199.459,0,0,0,31.725,7.443l4.881,20.085,32.165,1.1,6.345-19.694a198.886,198.886,0,0,0,32.213-5.247l12.2,16.595L344.453,511l-1.562-20.646a203.632,203.632,0,0,0,27.7-17.254l17.742,10.689,23.55-21.964-9.444-18.547a188.85,188.85,0,0,0,19.035-26.454l20.475,3.075,13.373-29.285L439.507,377.2a188.543,188.543,0,0,0,7.443-31.725ZM250.766,444.43A127.292,127.292,0,1,1,382.28,321.6,127.292,127.292,0,0,1,250.766,444.43Z" transform="translate(59.849 15.465)" fill="#ebebeb"/>
      <path id="Path_4" data-name="Path 4" d="M511.638,234.741l8.078-7.541-3.2-6.369a67.369,67.369,0,0,0,6.565-9.127l7.077,1.049,4.564-10.1-5.418-4.612a65.489,65.489,0,0,0,2.562-10.957l6.955-1.733.342-11.079-6.784-2.2a69.114,69.114,0,0,0-1.806-11.128l5.735-4.271-3.9-10.372-7.1.561a68.951,68.951,0,0,0-5.93-9.566l3.685-6.1-7.589-8.1-6.345,3.246A68.915,68.915,0,0,0,500,119.773l1.025-7.077-10.079-4.612-4.637,5.442a67.915,67.915,0,0,0-10.957-2.44l-1.733-6.931-11.079-.415-2.221,6.833a65.891,65.891,0,0,0-11.079,1.806l-4.246-5.735-10.4,3.88.586,7.126a64.865,64.865,0,0,0-9.566,5.93l-6.15-3.685-8.1,7.541,3.148,6.223a64.9,64.9,0,0,0-6.589,9.127l-7.053-1.049-4.588,10.1,5.442,4.637a64.676,64.676,0,0,0-2.44,10.933l-6.979,1.733-.342,11.079,6.809,2.2a66.482,66.482,0,0,0,1.782,11.128l-5.759,4.246,3.9,10.372,7.126-.537a68.952,68.952,0,0,0,5.93,9.566l-3.685,6.1,7.59,8.1L422,228.152a66.746,66.746,0,0,0,9.127,6.565l-1.049,7.053,10.1,4.612,4.637-5.418a70.618,70.618,0,0,0,10.957,2.44l1.733,6.931,11.079.415,2.221-6.833a65.549,65.549,0,0,0,11.079-1.806l4.246,5.735,10.4-3.88-.561-7.126a65.14,65.14,0,0,0,9.542-5.93ZM454,188.056a14.442,14.442,0,1,1-.1,0Z" transform="translate(564.582 15.205)" fill="#ebebeb"/>
      <path id="Path_5" data-name="Path 5" d="M514.7,377.18l-25.234-17.449h0a137.27,137.27,0,0,0-10.152-26.283l6.467-25.38-36.606-39.193-25.771,4.71a137.4,137.4,0,0,0-25.551-11.934h0L382.186,235.27,328.5,233.44l-17.425,25.234h0A137.964,137.964,0,0,0,284.814,268.8l-25.38-6.467L220.24,298.941l4.71,25.722h0a137.22,137.22,0,0,0-11.909,25.6L186.66,365.93l-1.83,53.689,25.258,17.425a133.613,133.613,0,0,0,10.128,26.405h0l-6.54,25.161L250.282,527.8l25.6-4.686A139.552,139.552,0,0,0,301.6,535.075h0l15.643,26.332,53.689,1.855,17.4-25.234a139.3,139.3,0,0,0,26.5-10.152h0l25.234,6.443,39.217-36.606-4.71-25.722a135.2,135.2,0,0,0,11.909-25.624h0L512.87,430.7ZM347.654,458.665a62.485,62.485,0,1,0-.024,0Z" transform="translate(266.231 202.026)" fill="#ebebeb"/>
      <path id="Path_6" data-name="Path 6" d="M433.16,389.747h-.171l-42.268-1.44a5.076,5.076,0,0,1-4.246-2.44l-11.4-19.157a116.756,116.756,0,0,1-17.766-8.249l-18.23,3.148a5.125,5.125,0,0,1-4.686-1.562l-28.87-30.9a5.125,5.125,0,0,1-1.22-4.881l4.612-18.083a110.924,110.924,0,0,1-6.98-18.23l-18.376-12.69a5.125,5.125,0,0,1-2.221-4.417l1.44-42.268a5.174,5.174,0,0,1,2.44-4.246l19.206-11.4a110.609,110.609,0,0,1,8.224-17.693l-3.368-18.376a5.15,5.15,0,0,1,1.562-4.71l30.9-28.846a5.149,5.149,0,0,1,4.881-1.245l18.157,4.637a111.857,111.857,0,0,1,18.181-7l12.69-18.376a4.881,4.881,0,0,1,4.417-2.221l42.243,1.464a5.149,5.149,0,0,1,4.271,2.44l11.4,19.182a113.252,113.252,0,0,1,17.62,8.249l18.449-3.392a5.1,5.1,0,0,1,4.686,1.562l28.87,30.9a5.174,5.174,0,0,1,1.22,4.881l-4.637,18.132a113.712,113.712,0,0,1,7.028,18.181l18.352,12.69a5.125,5.125,0,0,1,2.221,4.417l-1.44,42.243a5.271,5.271,0,0,1-2.44,4.271l-19.206,11.4a113.484,113.484,0,0,1-8.224,17.669l3.368,18.4a5.1,5.1,0,0,1-1.562,4.686l-31.091,28.87a5.125,5.125,0,0,1-4.881,1.22l-18.059-4.612a115.879,115.879,0,0,1-18.279,7l-12.568,18.352A5.2,5.2,0,0,1,433.16,389.747Zm-39.266-11.641,36.606,1.245L442.7,361.8a4.881,4.881,0,0,1,2.9-2.05,106.985,106.985,0,0,0,19.889-7.638h0a5.271,5.271,0,0,1,3.563-.366l17.083,4.368L512.986,331.1l-3.075-17.644a5.1,5.1,0,0,1,.634-3.587,101.469,101.469,0,0,0,8.908-19.108,5.2,5.2,0,0,1,2.294-2.88L540.123,277l1.245-36.606-17.571-12.2a5.149,5.149,0,0,1-1.977-2.611v-.415a104.936,104.936,0,0,0-7.614-19.523,5.149,5.149,0,0,1-.39-3.612l4.393-17.278-25.014-26.845-17.547,3.221a5.2,5.2,0,0,1-3.563-.634,103.233,103.233,0,0,0-19.133-8.956,5.567,5.567,0,0,1-1.1-.488,5.126,5.126,0,0,1-1.708-1.757l-11.006-18.425L402.533,129.6l-12.2,17.6a5.272,5.272,0,0,1-3.026,2.074,104.032,104.032,0,0,0-19.67,7.59,5.076,5.076,0,0,1-3.587.391l-17.278-4.393-26.844,25.014,3.221,17.5a5.319,5.319,0,0,1-.464,3.246l-.244.415a101.412,101.412,0,0,0-8.907,19.182,5.174,5.174,0,0,1-2.245,2.733L292.91,231.853l-1.245,36.606,17.6,12.2a5.125,5.125,0,0,1,2.05,2.88,101.324,101.324,0,0,0,7.59,19.816,6.2,6.2,0,0,1,.415,1.123,5.464,5.464,0,0,1,0,2.44L314.922,324l25.014,26.844,17.425-3.2a5.125,5.125,0,0,1,3.539.634,105.572,105.572,0,0,0,19.255,8.956,4.881,4.881,0,0,1,2.855,2.27Zm60.473-231.375ZM416.516,331.812h-2.709a76.946,76.946,0,1,1,2.709,0Zm0-144.2a67.233,67.233,0,1,0,2.319,0Z" transform="translate(405.242 37.324)" fill="#ebebeb"/>
      <path id="Path_7" data-name="Path 7" d="M396.548,67.525l-17.522-4.71-4.686-17.5L381.2,38.46l7.224,14.984,14.984,7.224Z" transform="translate(539.202 55.276)" fill="#e0e0e0"/>
      <path id="Path_8" data-name="Path 8" d="M390.693,115.054a8.162,8.162,0,0,0-11.543-11.543l8.712-13.081,11.665,5.906,2.562,12.2Z" transform="translate(546.131 -3.966)" fill="#e0e0e0"/>
      <path id="Path_9" data-name="Path 9" d="M376.58,101.577,389.417,88.74,406.89,93.4l4.71,17.5-12.837,12.837-17.5-4.71Zm23.306,10.494a5.784,5.784,0,1,1,0-.049Z" transform="translate(542.429 -6.401)" fill="#f0f0f0"/>
      <path id="Path_10" data-name="Path 10" d="M92.4,250.94l9.4-2.514,2.514-9.4-3.661-3.661-3.88,8.029-8.053,3.88Z" transform="translate(127.779 338.907)" fill="#e0e0e0"/>
      <path id="Path_11" data-name="Path 11" d="M93.687,301.923a4.393,4.393,0,0,1,6.2-6.2l-4.661-7-6.418,3.124-1.367,6.589Z" transform="translate(125.949 281.652)" fill="#e0e0e0"/>
      <path id="Path_12" data-name="Path 12" d="M104.948,294.682,98.066,287.8l-9.4,2.44-2.44,9.4,6.76,6.955,9.4-2.44Zm-12.495,5.637a4.393,4.393,0,1,1,6-.2,4.393,4.393,0,0,1-6,.2Z" transform="translate(124.206 280.327)" fill="#f0f0f0"/>
      <path id="Path_13" data-name="Path 13" d="M77.23,90.845l7.809,7.809a5.223,5.223,0,0,0,7.321,0h0a5.247,5.247,0,0,0,0-7.321l-7.785-7.785a5.247,5.247,0,0,0-7.321,0h0A5.222,5.222,0,0,0,77.23,90.845Z" transform="translate(109.12 -16.022)" fill="#f0f0f0"/>
      <path id="Path_14" data-name="Path 14" d="M78.746,77.946a10.86,10.86,0,1,1-7.321,14.106,11.2,11.2,0,0,1,7.321-14.106Z" transform="translate(102.113 -22.524)" fill="#e0e0e0"/>
      <rect id="Rectangle_8" data-name="Rectangle 8" width="3.343" height="24.648" transform="translate(173.497 71.342) rotate(-109.76)" fill="#f0f0f0"/>
    </g>
    <g id="Shadow" transform="translate(136.931 853.998)">
      <ellipse id="_Path_" data-name="&lt;Path&gt;" cx="473.171" cy="27.625" rx="473.171" ry="27.625" fill="#f5f5f5"/>
    </g>
    <g id="Oops_" data-name="Oops!" transform="translate(210.363 74.653)">
      <path id="Path_15" data-name="Path 15" d="M87.469,146.092c-2.44-10.762-1.367-19.792,3.27-27.162s12.2-12.2,22.964-14.642,20.06-1.464,27.333,3.075,12.2,12.2,14.642,22.7a41.853,41.853,0,0,1,.415,19.816,28.407,28.407,0,0,1-8.615,14.057A37.9,37.9,0,0,1,130.1,172.18a43.073,43.073,0,0,1-19.23.659,28.6,28.6,0,0,1-14.4-8.541,38.241,38.241,0,0,1-9.005-18.205Zm20.353-4.539q2.27,9.957,6.955,13.471a14.374,14.374,0,0,0,20.255-4.49c1.757-3.392,1.782-8.785.122-16.131q-2.123-9.3-6.858-12.739a13.081,13.081,0,0,0-11.128-1.977,12.69,12.69,0,0,0-8.908,6.589C106.455,129.863,106.285,134.744,107.822,141.553Z" transform="translate(-86.2 -60.482)" fill="#263238"/>
      <path id="Path_16" data-name="Path 16" d="M119.056,136.431a24.4,24.4,0,0,1,3.295-19.67,28.211,28.211,0,0,1,18.279-11.592q14.325-3.246,23.526,3.392a26.6,26.6,0,0,1,6.443,34.825Q164.887,152.1,152,155a28.87,28.87,0,0,1-19.914-1.611A24.038,24.038,0,0,1,119.056,136.431Zm18.327-4.222a14.837,14.837,0,0,0,4.71,8.859,8.737,8.737,0,0,0,13.007-2.9,15.448,15.448,0,0,0,.342-10.25,14.642,14.642,0,0,0-4.661-8.639,8.127,8.127,0,0,0-7.028-1.586,8.517,8.517,0,0,0-5.906,4.564,14.643,14.643,0,0,0-.464,9.957Z" transform="translate(-40.011 -58.875)" fill="#263238"/>
      <path id="Path_17" data-name="Path 17" d="M157.41,172.824l-14.96-65.891,17.083-3.9,1.611,7.053a23.185,23.185,0,0,1,5.149-7.492,19.157,19.157,0,0,1,8.371-4.124,17.6,17.6,0,0,1,16.448,3.953,31.261,31.261,0,0,1,9.347,16.912c1.806,7.931,1.269,14.423-1.562,19.523a19.206,19.206,0,0,1-13.007,9.542,20.914,20.914,0,0,1-8.029.317,18.937,18.937,0,0,1-7.175-2.855l5.174,22.769Zm8.81-46.026a12.91,12.91,0,0,0,4.3,7.858,7.785,7.785,0,0,0,6.638,1.367,6.882,6.882,0,0,0,4.881-3.831,14.643,14.643,0,0,0,0-9.42,13.691,13.691,0,0,0-4.173-8,7.1,7.1,0,0,0-6.1-1.464,7.614,7.614,0,0,0-5.222,4.075,13.959,13.959,0,0,0-.317,9.42Z" transform="translate(-5.177 -67.886)" fill="#263238"/>
      <path id="Path_18" data-name="Path 18" d="M171.208,135.486l17.766-5.833a9.151,9.151,0,0,0,4.2,3.9,11.446,11.446,0,0,0,11.055-2.684,3.636,3.636,0,0,0,.9-3.27,3.392,3.392,0,0,0-2.758-2.611,38.022,38.022,0,0,0-8.3,0,82.069,82.069,0,0,1-13.91,0,14.35,14.35,0,0,1-7.321-3.343,13.447,13.447,0,0,1-3.392-15.838A16.472,16.472,0,0,1,175.82,99a40.949,40.949,0,0,1,12.519-4.612,45.1,45.1,0,0,1,12.885-1.562,16.863,16.863,0,0,1,7.712,2.44,21.622,21.622,0,0,1,6.2,6.394L198.052,107.3a6.125,6.125,0,0,0-3-2.855,9.4,9.4,0,0,0-5.54-.244,7.517,7.517,0,0,0-4.271,2.123,3.294,3.294,0,0,0-.805,2.977,2.928,2.928,0,0,0,2.44,2.245,30.162,30.162,0,0,0,8.2-.171,54.713,54.713,0,0,1,14.2-.2,15.35,15.35,0,0,1,8,3.685,13.324,13.324,0,0,1,4.051,6.955,15.081,15.081,0,0,1-.659,8.615,17.279,17.279,0,0,1-6.443,7.98,38.462,38.462,0,0,1-14.106,5.637q-13.056,2.977-19.523.512a17.254,17.254,0,0,1-9.4-9.078Z" transform="translate(31.907 -75.135)" fill="#263238"/>
      <path id="Path_19" data-name="Path 19" d="M193.85,85.57h20.036v15.375l-3.685,30.92H197.8l-3.953-30.871Zm.976,50.956H213.52v16.546H194.826Z" transform="translate(68.86 -85.57)" fill="#263238"/>
    </g>
    <g id="_404" data-name="404" transform="translate(173.635 108.31)">
      <path id="Path_20" data-name="Path 20" d="M170.538,207.414H170.1c-10.982-4.271-17.547-8.419-20.963-13.422a12.543,12.543,0,0,1-7.883-1.074,15.863,15.863,0,0,1-6.809-6.394,6.2,6.2,0,0,1-5.906.9,14.984,14.984,0,0,1-7.321-5.881,5.443,5.443,0,0,1-3.807,1.049c-7.321-.586-17.083-15.033-17.791-30.407a1.269,1.269,0,0,1,1.171-1.293,1.22,1.22,0,0,1,1.269,1.171c.683,14.642,10.03,27.65,15.57,28.089a3.075,3.075,0,0,0,2.27-.659,29.968,29.968,0,0,1-2.44-22.989c2.1-7.321,3.953-10.2,6.2-9.762,4.2,1.049,3.636,17.083,1.415,27.552a14.984,14.984,0,0,1-2.05,5.32,13.178,13.178,0,0,0,6.2,5.393,3.856,3.856,0,0,0,4.075-.854c-1.9-4.71-2.44-11.153.293-19.377,3.417-10.787,4.881-11.079,5.637-11.275a1.611,1.611,0,0,1,1.562.537c2.27,2.562-.439,19.352-3.27,27.65a12.2,12.2,0,0,1-1.367,2.831,13.569,13.569,0,0,0,6.077,6.1,10.761,10.761,0,0,0,5.564,1.049c-.22-.464-.415-.927-.61-1.415-1.928-5.247-.976-11.275,2.9-18.5,2.562-4.759,4.661-7,6.614-7h0a2.709,2.709,0,0,1,2.44,1.611c2.123,3.929.586,16.888-3.612,23.33a9.761,9.761,0,0,1-3.953,3.417c3.27,4.3,9.493,8.078,19.523,11.934a1.2,1.2,0,0,1,.708,1.562,1.245,1.245,0,0,1-1.269.805Zm-13.861-40.194s-1.391,0-4.466,5.735c-3.539,6.54-4.441,11.934-2.758,16.473a12.345,12.345,0,0,0,.732,1.635,7.029,7.029,0,0,0,3.221-2.684c3.417-5.222,5.052-15.96,3.783-20.158C157.019,167.367,156.677,167.221,156.677,167.221Zm-17.522-10.274a56.932,56.932,0,0,0-3.27,8.615,27.772,27.772,0,0,0-.927,15.985l.22-.635a80.02,80.02,0,0,0,4.051-23.965ZM123.1,149.259c-.415.366-1.611,1.9-3.295,7.858a27.43,27.43,0,0,0,1.757,20.109,15.083,15.083,0,0,0,1.1-3.417c2.611-11.983,1.879-22.818.512-24.551Z" transform="translate(-30.142 -31.172)" fill="#263238"/>
      <path id="Path_21" data-name="Path 21" d="M173.624,242.485a21.963,21.963,0,0,1-11.128-2.9,1.245,1.245,0,0,1-.439-1.684,1.2,1.2,0,0,1,1.659-.415c8.712,5.1,19.963,1.537,22.281-2.2a2.148,2.148,0,0,0,.366-1.635,19.816,19.816,0,0,1-12.519-3.563c-6.223-3.88-6.711-5.052-6.662-5.979a1.489,1.489,0,0,1,.83-1.269c2.44-1.22,13.447,3.831,18.035,6.858a8.859,8.859,0,0,1,1.513,1.269,8.663,8.663,0,0,0,4.637-2.782,7,7,0,0,0,1.44-2.758h-.488c-3.9.39-7.809-1.293-11.982-5.149-2.88-2.636-3.978-4.466-3.612-5.906a2.2,2.2,0,0,1,1.757-1.586c3.368-.854,11.714,2.709,15.106,6.443a6.54,6.54,0,0,1,1.562,2.88c3.2-1.489,6.565-4.881,10.543-10.421a1.22,1.22,0,0,1,1.708-.293,1.245,1.245,0,0,1,.293,1.708c-4.612,6.443-8.468,10.1-12.324,11.592a9,9,0,0,1-2.123,4.881,11.226,11.226,0,0,1-5.32,3.441,4.491,4.491,0,0,1-.683,3.392C186.022,239.9,180.116,242.485,173.624,242.485Zm-2.172-16.936c.83.61,2,1.415,3.685,2.44a19.523,19.523,0,0,0,8.785,3.221,60.2,60.2,0,0,0-12.47-5.662Zm8.517-10.372a10.566,10.566,0,0,0,2.855,3.392c3.612,3.343,6.906,4.881,10.079,4.49h.781a4.416,4.416,0,0,0-1.074-2.026C189.194,217.178,181.678,214.786,179.969,215.177Z" transform="translate(59.557 61.684)" fill="#263238"/>
      <path id="Path_22" data-name="Path 22" d="M336.642,329.782l-38.022,6.906L264.089,148.24,190.73,161.565,71.15,373.88l12.837,70.064L237.366,416.1l10.494,57.3,73.359-13.373-10.494-57.3,38.022-6.906ZM144.216,364.851l63.451-111.209,17.693,96.494Z" transform="translate(-71.15 -28.957)" fill="#2498fe"/>
      <path id="Path_23" data-name="Path 23" d="M461.584,205.857a143.6,143.6,0,0,0-7.809-34.7,113.013,113.013,0,0,0-17.083-29.749A98.518,98.518,0,0,0,405.7,116.123q-19.523-10.713-51.786-14.911-66.989-8.737-104.4,23.77t-49.3,124.461a340.019,340.019,0,0,0-2.44,69.161q2.44,31.725,11.665,51.078a106.743,106.743,0,0,0,35.752,43.39Q268.3,429.3,308.644,434.523q71.7,9.347,106.329-27.552t45.88-124.7a315.981,315.981,0,0,0,.732-76.409Z" transform="translate(110.155 -99.362)" fill="#2498fe"/>
      <path id="Path_24" data-name="Path 24" d="M314.768,393.59c-5.881-.2-12.2-.732-18.571-1.562-22.354-2.9-39.632-8.566-51.395-16.814a79.7,79.7,0,0,1-26.844-32.7l-.122-.268c-4.686-9.762-7.76-23.794-9.1-41.487a312.865,312.865,0,0,1,2.245-63.695c8.712-67.648,26.7-95.884,40.242-107.646,15.814-13.715,37.167-19.914,65.232-18.938,5.759.2,11.86.708,18.132,1.513,18.01,2.44,32.287,6.345,42.39,11.86a72.7,72.7,0,0,1,22.72,18.279,86.026,86.026,0,0,1,13.056,22.623A116.6,116.6,0,0,1,419,192.94a289.6,289.6,0,0,1-.708,70.089c-6.76,52.566-19.841,89.514-38.851,109.818-14.106,15.033-35.264,21.964-64.7,20.841Z" transform="translate(126.019 -83.492)" fill="#263238"/>
      <path id="Path_25" data-name="Path 25" d="M343.72,183.578l.317-9.249-5.686-1.855a55.68,55.68,0,0,0-1.513-9.274l4.881-3.563-3.27-8.688-5.955.488a55.681,55.681,0,0,0-4.881-7.98l3.075-5.149-6.345-6.76-5.32,2.733a56.541,56.541,0,0,0-7.614-5.515l.854-5.906-8.444-3.831-3.856,4.539a56.761,56.761,0,0,0-9.152-2.148l-1.44-5.784-9.274-.317-1.83,5.662A57.449,57.449,0,0,0,269,122.495l-3.587-4.881-8.688,3.246.488,5.955a55.988,55.988,0,0,0-7.98,4.881l-5.125-3.1-6.784,6.321,2.733,5.345a53.153,53.153,0,0,0-5.491,7.638l-5.906-.9L224.8,155.44l4.563,3.856a52.311,52.311,0,0,0-2.148,9.176l-5.808,1.464-.317,9.225,5.686,1.855a55.154,55.154,0,0,0,1.513,9.3l-4.881,3.539,3.27,8.688,5.955-.488a52.481,52.481,0,0,0,4.881,7.98l-3.1,5.149,6.345,6.76,5.32-2.709a56.376,56.376,0,0,0,7.614,5.491l-.879,5.906,8.444,3.831,3.88-4.515a56.426,56.426,0,0,0,9.176,2.123l1.44,5.808,9.249.317,1.83-5.686a55.148,55.148,0,0,0,9.3-1.513l3.539,4.881,8.688-3.246-.464-5.93a60.733,60.733,0,0,0,7.98-4.881L321,224.894l6.784-6.321-2.709-5.344a52.756,52.756,0,0,0,5.466-7.614l5.906.879,3.856-8.444-4.539-3.856a54.245,54.245,0,0,0,2.123-9.151Zm-62.474,29.944a36.606,36.606,0,1,1,26.319-9.826,36.606,36.606,0,0,1-26.319,9.826Z" transform="translate(144.825 -76.375)" fill="#2498fe"/>
      <path id="Path_26" data-name="Path 26" d="M335.892,242.009l.683-6.247-3.758-1.513a39.037,39.037,0,0,0-.537-6.345l3.392-2.172L333.94,219.7h-4.051a36.152,36.152,0,0,0-2.9-5.637l2.294-3.319-3.9-4.881-3.734,1.562a39.216,39.216,0,0,0-4.881-4.1l.9-3.953-5.491-3.026-2.88,2.9a38.725,38.725,0,0,0-6.052-1.928l-.683-3.978-6.223-.708L294.8,196.4a36.237,36.237,0,0,0-6.321.586l-2.172-3.465-6.028,1.781v4.051a36.364,36.364,0,0,0-5.637,2.928l-3.319-2.44-4.881,3.9L268,207.478a39.371,39.371,0,0,0-4.076,4.881l-3.953-.879-3,5.491,2.88,2.855a36.608,36.608,0,0,0-1.928,6.077l-4,.659-.659,6.223,3.734,1.562a35.953,35.953,0,0,0,.561,6.3l-3.441,2.172,1.757,6.028h4.076a37.131,37.131,0,0,0,2.928,5.613l-2.44,3.319,3.9,4.881,3.783-1.586A35.5,35.5,0,0,0,273,265.145l-.854,4.027,5.491,3,2.855-2.855a39.351,39.351,0,0,0,6.052,1.879l.708,4,6.223.683,1.513-3.734a39.577,39.577,0,0,0,6.443-.537l2.172,3.441,6-1.757v-4.051a40.149,40.149,0,0,0,5.662-2.928l3.27,2.44,4.881-3.929-1.586-3.734a39.734,39.734,0,0,0,4.124-4.881l3.929.879,3.026-5.491-2.88-2.831a40.188,40.188,0,0,0,1.879-6.052Zm-31.408-2.44a10.884,10.884,0,1,1-4.319-14.764,10.884,10.884,0,0,1,4.319,14.764Z" transform="translate(191.163 34.997)" fill="#407bff" opacity="0.3"/>
      <path id="Path_27" data-name="Path 27" d="M357.336,194.094l-7.321-5.027h0a40.484,40.484,0,0,0-2.928-7.565l1.855-7.321-10.542-11.3-7.321,1.367a41.492,41.492,0,0,0-7.321-3.441h0l-4.515-7.614-15.448-.513L298.767,160h0a38.85,38.85,0,0,0-7.565,2.928l-7.321-1.879-11.3,10.567,1.367,7.321h0a38.266,38.266,0,0,0-3.441,7.321l-7.59,4.515-.537,15.448,7.321,5.027a39.319,39.319,0,0,0,2.928,7.614h0l-1.855,7.321,10.543,11.3,7.321-1.342a41.866,41.866,0,0,0,7.321,3.441h0l4.49,7.59,15.472.537,5-7.321a40.541,40.541,0,0,0,7.638-2.928h0l7.321,1.855,11.3-10.543-1.342-7.321a40.75,40.75,0,0,0,3.441-7.321h0l7.59-4.515ZM309.187,217.57A17.376,17.376,0,1,1,327.148,200.8a17.376,17.376,0,0,1-17.961,16.766Z" transform="translate(204.299 -22.561)" fill="#fff"/>
      <path id="Path_28" data-name="Path 28" d="M337.13,139.66l1.269-3.051h0a16.345,16.345,0,0,0,2.44-1.684h2.831l3.319-4.881-1.074-2.611a15.081,15.081,0,0,0,.976-2.709h0l2.44-2.245-1.025-5.735-3.075-1.269h0a15.5,15.5,0,0,0-1.684-2.44V110.2l-4.759-3.319-2.636,1.1h0a13.545,13.545,0,0,0-2.977-.683l-2.245-2.44-5.711,1.025-1.293,3.075a15.865,15.865,0,0,0-2.562,1.659h-2.806L315.24,115.5l1.074,2.611a15.08,15.08,0,0,0-.683,2.977h0l-2.44,2.27,1.025,5.711,3.075,1.269a13.987,13.987,0,0,0,1.659,2.44h0v2.806l4.881,3.319,2.611-1.074a15.692,15.692,0,0,0,3,.659h0l2.245,2.44Zm-12.2-15.814a6.54,6.54,0,1,1,7.59,5.271,6.54,6.54,0,0,1-7.59-5.271Z" transform="translate(277.486 -91.442)" fill="#2498fe"/>
      <path id="Path_29" data-name="Path 29" d="M296.719,120.628l-1.879-1.586a48.563,48.563,0,0,1,14.643-12.2l1.147,2.148A46.051,46.051,0,0,0,296.719,120.628Z" transform="translate(251.055 -88.59)" fill="#2498fe"/>
      <path id="Path_30" data-name="Path 30" d="M304.152,110.98l-.952-2.245a58.375,58.375,0,0,1,28.65-4.588l-.244,2.44a55.617,55.617,0,0,0-27.454,4.393Z" transform="translate(263.097 -92.827)" fill="#2498fe"/>
      <path id="Path_31" data-name="Path 31" d="M302.881,123.731l-2-1.367a40.853,40.853,0,0,1,24.087-15.594l.464,2.44a38.364,38.364,0,0,0-22.549,14.52Z" transform="translate(259.755 -88.691)" fill="#2498fe"/>
      <path id="Path_32" data-name="Path 32" d="M265.921,268.958a1.269,1.269,0,0,1-.879-.39l-5.1-5.271a42.688,42.688,0,0,1-7.687-1.415l-7.98,3.514a1.2,1.2,0,0,1-1.147,0l-13.373-8.859a1.2,1.2,0,0,1-.537-1.049V246.8a41.979,41.979,0,0,1-4.3-6.54l-6.858-2.636a1.22,1.22,0,0,1-.756-.9L214.135,221a1.22,1.22,0,0,1,.342-1.123l5.271-5.1a45.832,45.832,0,0,1,1.415-7.687l-3.514-7.98a1.2,1.2,0,0,1,0-1.147l8.859-13.373a1.147,1.147,0,0,1,1.049-.537l8.688.122a40.315,40.315,0,0,1,6.54-4.3l2.66-6.858a1.2,1.2,0,0,1,.879-.757L262.04,169.1a1.2,1.2,0,0,1,1.123.342l5.1,5.271a43.341,43.341,0,0,1,7.712,1.415l7.956-3.514a1.244,1.244,0,0,1,1.171,0l13.349,8.859a1.318,1.318,0,0,1,.561,1.049l-.146,8.688a42.116,42.116,0,0,1,4.32,6.54l6.833,2.66a1.2,1.2,0,0,1,.757.879l3.2,15.716a1.269,1.269,0,0,1-.342,1.123l-5.3,5.125a43.925,43.925,0,0,1-1.415,7.663l3.514,7.98a1.244,1.244,0,0,1,0,1.171L301.7,253.315a1.245,1.245,0,0,1-1.025.537l-8.712-.122a44.858,44.858,0,0,1-6.516,4.3l-2.66,6.858a1.2,1.2,0,0,1-.9.756l-15.716,3.319ZM252.181,259.2a.879.879,0,0,1,.342,0,40.658,40.658,0,0,0,8.078,1.489,1.366,1.366,0,0,1,.781.366l4.881,5.125,14.4-2.9,2.587-6.687a1.343,1.343,0,0,1,.586-.634,39.163,39.163,0,0,0,6.858-4.515,1.147,1.147,0,0,1,.805-.268l8.468.122,8.1-12.2-3.417-7.76a1.22,1.22,0,0,1,0-.83,42.678,42.678,0,0,0,1.489-8.078,1.245,1.245,0,0,1,.366-.781l5.125-4.881-2.9-14.4-6.662-2.587a1.2,1.2,0,0,1-.659-.586,40.1,40.1,0,0,0-4.515-6.858,1.269,1.269,0,0,1-.268-.781v-8.493l-12.2-8.1-7.736,3.417a1.27,1.27,0,0,1-.854,0,41.487,41.487,0,0,0-8.1-1.489,1.366,1.366,0,0,1-.781-.366l-4.881-5.125-14.4,2.928L245.1,181.1a1.245,1.245,0,0,1-.561.659,38.894,38.894,0,0,0-6.882,4.515,1.05,1.05,0,0,1-.781.268l-8.468-.122-8.127,12.2,3.417,7.76a1.22,1.22,0,0,1,0,1.049,41.808,41.808,0,0,0-1.415,7.883,1.221,1.221,0,0,1-.366.781L216.8,220.98l2.929,14.4,6.638,2.587a1.342,1.342,0,0,1,.683.634,39.586,39.586,0,0,0,4.49,6.809,1.171,1.171,0,0,1,.268.781v8.493l12.2,8.1,7.76-3.417a1.27,1.27,0,0,1,.415-.171Zm11.982-7.907A32.506,32.506,0,0,1,237.1,200.822h0a32.531,32.531,0,1,1,27.064,50.468Zm-25.014-49.125a29.944,29.944,0,1,0,19.082-12.907,30.066,30.066,0,0,0-19.082,12.907Z" transform="translate(134.77 1.045)" fill="#fff"/>
      <path id="Path_33" data-name="Path 33" d="M588.467,352.659l-38.315-5.174L575.483,157.6l-73.9-9.957L322.34,312.66l-9.42,70.6L467.373,404.1l-7.712,57.765,73.9,9.957,7.712-57.74,38.314,5.174ZM394.649,326.5l94.59-86.22L476.257,337.5Z" transform="translate(277.097 -29.821)" fill="#2498fe"/>
      <path id="Path_34" data-name="Path 34" d="M394.9,465.447h-.317a1.22,1.22,0,0,1-.976-1.415l57.105-312.226a1.245,1.245,0,0,1,1.415-.976,1.22,1.22,0,0,1,.976,1.415L396.1,464.446a1.2,1.2,0,0,1-1.2,1Z" transform="translate(393.298 -25.25)" fill="#263238"/>
      <path id="Path_35" data-name="Path 35" d="M417.193,154.6a2,2,0,1,1-1.928-2.074A2,2,0,0,1,417.193,154.6Z" transform="translate(421.526 -22.793)" fill="#263238"/>
      <path id="Path_36" data-name="Path 36" d="M413.861,171.9a2,2,0,1,1-.534-1.437A2,2,0,0,1,413.861,171.9Z" transform="translate(416.731 2.126)" fill="#263238"/>
      <path id="Path_37" data-name="Path 37" d="M410.533,189.225a2,2,0,0,1-2.074,1.928,1.977,1.977,0,0,1-1.928-2.05,2,2,0,0,1,2.075-1.952A2.026,2.026,0,0,1,410.533,189.225Z" transform="translate(411.933 27.089)" fill="#263238"/>
      <path id="Path_38" data-name="Path 38" d="M403.965,207.311a2,2,0,1,1-.925-1.916A2,2,0,0,1,403.965,207.311Z" transform="translate(402.492 52.93)" fill="#263238"/>
      <path id="Path_39" data-name="Path 39" d="M403.861,223.794a1.977,1.977,0,0,1-2.074,1.928,2,2,0,1,1,2.074-1.928Z" transform="translate(402.327 76.885)" fill="#263238"/>
      <path id="Path_40" data-name="Path 40" d="M400.532,241.081a2,2,0,1,1-1.928-2.05A2,2,0,0,1,400.532,241.081Z" transform="translate(397.53 101.817)" fill="#263238"/>
      <path id="Path_41" data-name="Path 41" d="M397.2,258.388a2.025,2.025,0,0,1-2.074,1.952,2.008,2.008,0,1,1,2.074-1.952Z" transform="translate(392.733 126.729)" fill="#263238"/>
      <path id="Path_42" data-name="Path 42" d="M393.861,275.705a2,2,0,1,1-1.928-2.074,1.977,1.977,0,0,1,1.928,2.074Z" transform="translate(387.923 151.655)" fill="#263238"/>
      <path id="Path_43" data-name="Path 43" d="M401.5,208.657a1.2,1.2,0,0,1-1.171-.952,1.22,1.22,0,0,1,.927-1.464l6.052-1.293a1.223,1.223,0,1,1,.513,2.392l-6.052,1.293Z" transform="translate(402.957 52.682)" fill="#263238"/>
      <path id="Path_44" data-name="Path 44" d="M414.539,197.24a207.585,207.585,0,0,0-7.321,22.842c-1.83,8.615-1.928,27.894-1.928,27.894" transform="translate(410.148 41.623)" fill="#263238"/>
      <path id="Path_45" data-name="Path 45" d="M406.01,249.966h0a1.269,1.269,0,0,1-1.22-1.245c0-.781.146-19.523,1.977-28.114a205.541,205.541,0,0,1,7.321-23.038,1.22,1.22,0,1,1,2.27.879,205.9,205.9,0,0,0-7.321,22.671c-1.782,8.4-1.9,27.43-1.928,27.626A1.22,1.22,0,0,1,406.01,249.966Z" transform="translate(409.428 40.853)" fill="#263238"/>
    </g>
    <g id="Character" transform="translate(277.987 467.686)">
      <path id="Path_46" data-name="Path 46" d="M222.45,388.7c3.392-54.665-2.831-154.063,99.935-140.885C432.52,261.894,401.015,390.7,401.015,390.7Z" transform="translate(42.432 -246.622)" fill="#263238"/>
      <circle id="Ellipse_1" data-name="Ellipse 1" cx="44.855" cy="44.855" r="44.855" transform="translate(290.945 19.518)" fill="#fff"/>
      <path id="Path_47" data-name="Path 47" d="M281.2,254.96c-21.256-3.612-43.927,12.031-46.2,27.894l84.219,7.76C316.241,272.531,298.036,257.84,281.2,254.96Z" transform="translate(60.509 -235.369)" fill="#263238"/>
      <path id="Path_48" data-name="Path 48" d="M281.227,285.511c-.61,11.738-7,20.939-14.276,20.548s-12.69-10.177-12.2-21.964,7-20.939,14.276-20.548S281.812,273.8,281.227,285.511Z" transform="translate(88.91 -222.261)" fill="#263238"/>
      <path id="Path_49" data-name="Path 49" d="M279.425,348.21a47.3,47.3,0,1,1,47.3-47.3A47.3,47.3,0,0,1,279.425,348.21Zm0-89.709a42.414,42.414,0,1,0,42.414,42.414A42.414,42.414,0,0,0,279.425,258.5Z" transform="translate(56.375 -236.542)" fill="#2396fa"/>
      <path id="Path_50" data-name="Path 50" d="M291.346,345.525h-.293a1.2,1.2,0,0,1-.9-1.464c0-.317,7.858-33.409-.22-66.867a1.255,1.255,0,0,1,2.44-.586c8.224,34.166.293,67.7.22,68.014A1.22,1.22,0,0,1,291.346,345.525Z" transform="translate(139.581 -204.816)" fill="#fff" opacity="0.3"/>
      <path id="Path_51" data-name="Path 51" d="M295.351,281.387a1.269,1.269,0,0,1-1.123-.708,85.242,85.242,0,0,0-11.567-18.693,1.223,1.223,0,1,1,1.9-1.537,89,89,0,0,1,11.885,19.206,1.2,1.2,0,0,1-.586,1.611A1.318,1.318,0,0,1,295.351,281.387Z" transform="translate(128.768 -227.362)" fill="#fff" opacity="0.3"/>
      <path id="Path_52" data-name="Path 52" d="M136.266,465.74h-.9a12.207,12.207,0,1,1,.683-24.4h.22c7.053,0,24.014-8.566,59.5-64.5a12.2,12.2,0,0,1,18.327-2.66,506.293,506.293,0,0,0,90.637,62.182A12.2,12.2,0,1,1,293.7,458.1a519.2,519.2,0,0,1-84.926-56.471C179.022,446.411,156.961,465.74,136.266,465.74Z" transform="translate(-100.099 -67.226)" fill="#263238"/>
      <path id="Path_53" data-name="Path 53" d="M173.644,451.719h-1.049a7.321,7.321,0,0,1-6.2-8.273c1.733-12.2-.415-57.667-15.814-93.053a7.321,7.321,0,0,1,2.587-8.981c33.434-22.769,104.645-25.5,107.671-25.6a7.325,7.325,0,0,1,.488,14.643c-.659,0-62.914,2.44-94.883,20.011,13.617,35.24,16.717,79.142,14.447,95.03a7.321,7.321,0,0,1-7.248,6.223Z" transform="translate(-61.97 -146.966)" fill="#263238"/>
      <path id="Path_54" data-name="Path 54" d="M198.341,372.45c-4.881-11.494-26.844-10.2-39.705-.342-6.882,5.247-16.2,21.085-17.083,26.844a8.639,8.639,0,0,0,9.762,10.347c8.419-.732,19.963-12.959,19.963-12.959-7.687,7.541,2.245,12.861,17.083,1.952C196.462,392.217,203.784,385.31,198.341,372.45Z" transform="translate(-74.369 -77.165)" fill="#2498fc"/>
      <path id="Path_55" data-name="Path 55" d="M337.434,351.266a.782.782,0,0,1-.342,0,1.2,1.2,0,0,1-.83-1.513c3.246-11.324,6.784-18.23,11.446-21.964a12.643,12.643,0,0,1,.39-7.956,15.618,15.618,0,0,1,5.759-7.321,6.2,6.2,0,0,1-1.44-5.808,15.081,15.081,0,0,1,5.223-7.712,5.467,5.467,0,0,1-1.391-3.685c0-7.321,13.447-18.352,28.7-20.451a1.232,1.232,0,0,1,.342,2.441c-14.5,1.977-26.649,12.47-26.6,18.01a3.2,3.2,0,0,0,.879,2.221,29.872,29.872,0,0,1,22.647-4.564c7.492,1.44,10.543,3.026,10.2,5.3-.683,4.271-16.619,5.174-27.308,3.9a15.082,15.082,0,0,1-5.491-1.586,13.129,13.129,0,0,0-4.881,6.662,3.832,3.832,0,0,0,1.2,4c4.539-2.44,10.909-3.319,19.328-1.464,11.055,2.44,11.47,3.783,11.738,4.588a1.635,1.635,0,0,1-.415,1.635c-2.318,2.44-19.279,1.293-27.8-.805a11.986,11.986,0,0,1-2.953-1.1,13.3,13.3,0,0,0-5.515,6.613,10.323,10.323,0,0,0-.561,5.613,14.092,14.092,0,0,1,1.342-.708c5.052-2.44,11.153-2,18.694,1.22,4.881,2.123,7.321,4.027,7.565,5.955a2.733,2.733,0,0,1-1.391,2.44c-3.734,2.44-16.766,2.1-23.55-1.513a9.764,9.764,0,0,1-3.758-3.636c-3.978,3.661-7.2,10.177-10.128,20.4a1.245,1.245,0,0,1-1.1.781ZM350.661,328.5a7.322,7.322,0,0,0,2.977,2.977c5.515,2.929,16.351,3.587,20.4,1.952.83-.342.952-.61.952-.61s-.122-1.367-6.1-3.929c-6.833-2.929-12.2-3.343-16.668-1.269a14.124,14.124,0,0,0-1.562.878Zm8.151-16.034.61.171a80.747,80.747,0,0,0,24.258,1.83,52.964,52.964,0,0,0-8.883-2.44,27.774,27.774,0,0,0-15.985.439Zm3.075-13.715a14.441,14.441,0,0,0,3.49.781c12.2,1.44,22.915-.244,24.4-1.781-.415-.366-2.05-1.415-8.1-2.562A27.455,27.455,0,0,0,361.887,298.749Z" transform="translate(206.289 -205.97)" fill="#263238"/>
      <path id="Path_56" data-name="Path 56" d="M287.267,410.908c1.611-.512,1.074-2.074-.732-2.074H253.492c-62.914-6.662-106.865,2.27-79.167,4.368s-1.952,1.659-22.183,9.322,150.451,9.591,165.948,0C332.342,413.69,264.962,418.058,287.267,410.908Z" transform="translate(-61.237 -16.47)" fill="#263238"/>
      <path id="Path_57" data-name="Path 57" d="M480.194,527.445,192.714,517.9,180.78,239.16l339.485,7.59Z" transform="translate(-17.59 -123.27)" fill="#2498fe"/>
      <path id="Path_58" data-name="Path 58" d="M236.769,576.735a1.22,1.22,0,0,1-1.22-1.123L212.511,295.649a1.245,1.245,0,0,1,1.123-1.318,1.269,1.269,0,0,1,1.318,1.123l23.159,279.964a1.22,1.22,0,0,1-1.123,1.318Z" transform="translate(28.113 -177.904)" fill="#263238"/>
      <path id="Path_59" data-name="Path 59" d="M303.47,522.966l77.263-11.787,24.331-259.171-61.523-9.737Z" transform="translate(159.134 -118.791)" fill="#2090f0"/>
      <path id="Path_60" data-name="Path 60" d="M303.47,522.966l77.263-11.787,24.331-259.171-61.523-9.737Z" transform="translate(159.134 -118.791)" opacity="0.2"/>
      <path id="Path_61" data-name="Path 61" d="M199.923,502.508l-7.077-165.631a29.944,29.944,0,0,1,30.578-31.213l214.9,4.881a29.944,29.944,0,0,1,28.967,34.166L443.476,511.488A29.944,29.944,0,0,1,412.9,537.235l-183.982-6.1A29.944,29.944,0,0,1,199.923,502.508Z" transform="translate(-0.249 -161.588)" fill="#263238"/>
      <path id="Path_62" data-name="Path 62" d="M206.013,326.49l33.238,1.049-.268,8.566-20.817-.659-.2,6.394,19.3.61-.268,8.2-19.3-.635-.244,7.931,21.4.683-.293,9.078-33.848-1.074Z" transform="translate(16.893 -131.58)" fill="#fff"/>
      <path id="Path_63" data-name="Path 63" d="M221.4,367.165l1.269-40.145,20.695.659a29.823,29.823,0,0,1,8.761,1.269,9.3,9.3,0,0,1,4.881,3.807,11.324,11.324,0,0,1-4,16.082,15.031,15.031,0,0,1-4.417,1.464,12.493,12.493,0,0,1,3.2,1.562,13.447,13.447,0,0,1,1.9,2.2,15.694,15.694,0,0,1,1.659,2.44l5.637,11.836-14.008-.464-6.247-12.47a9.615,9.615,0,0,0-2.148-3.172,5.417,5.417,0,0,0-3-1.025h-1.1l-.513,16.278Zm13.227-23.477,5.222.171a21.074,21.074,0,0,0,3.295-.464,3.294,3.294,0,0,0,2.074-1.2,3.831,3.831,0,0,0,.854-2.294,3.758,3.758,0,0,0-1.147-3.026,7.566,7.566,0,0,0-4.588-1.2l-5.467-.171Z" transform="translate(40.919 -130.816)" fill="#fff"/>
      <path id="Path_64" data-name="Path 64" d="M239.28,367.695l1.269-40.145,20.67.659a29.677,29.677,0,0,1,8.761,1.269,9.2,9.2,0,0,1,4.881,3.807,11.75,11.75,0,0,1-3.978,16.082,14.646,14.646,0,0,1-4.417,1.44,12.985,12.985,0,0,1,3.173,1.586,11.814,11.814,0,0,1,1.928,2.172,16.773,16.773,0,0,1,1.659,2.44l5.637,11.812-14.008-.439-6.247-12.47a9.76,9.76,0,0,0-2.148-3.172,5.077,5.077,0,0,0-3.026-1.025h-1.074l-.537,16.3Zm13.2-23.477,5.247.146a17.591,17.591,0,0,0,3.295-.439,3.2,3.2,0,0,0,2.05-1.2,3.563,3.563,0,0,0,.854-2.294,3.709,3.709,0,0,0-1.123-3.026,7.321,7.321,0,0,0-4.612-1.2l-5.442-.171Z" transform="translate(66.674 -130.053)" fill="#fff"/>
      <path id="Path_65" data-name="Path 65" d="M256.363,348.334A19.011,19.011,0,0,1,277.741,328.2a20.988,20.988,0,0,1,15.277,5.881,20.3,20.3,0,0,1,4.881,15.253,24.917,24.917,0,0,1-2.733,11.47,17.083,17.083,0,0,1-7.077,6.784,22.5,22.5,0,0,1-11.25,2.148,25.821,25.821,0,0,1-11.177-2.44,17.083,17.083,0,0,1-6.98-7.077,22.477,22.477,0,0,1-2.319-11.885Zm12.4.439a13.57,13.57,0,0,0,1.977,8.81,8.59,8.59,0,0,0,12.348.464,14.96,14.96,0,0,0,2.44-9.274A12.617,12.617,0,0,0,283.5,340.4a7.858,7.858,0,0,0-5.955-2.709,7.565,7.565,0,0,0-6.125,2.44,13.569,13.569,0,0,0-2.66,8.639Z" transform="translate(91.176 -129.337)" fill="#fff"/>
      <path id="Path_66" data-name="Path 66" d="M275.91,368.919l1.269-40.169,20.67.659a30.534,30.534,0,0,1,8.761,1.269,9.444,9.444,0,0,1,4.881,3.807,10.957,10.957,0,0,1,1.659,6.565,10.787,10.787,0,0,1-5.637,9.542,16.13,16.13,0,0,1-4.417,1.44,12.2,12.2,0,0,1,3.172,1.586,11.814,11.814,0,0,1,1.928,2.172,15.7,15.7,0,0,1,1.659,2.44l5.637,11.836-14.008-.439-6.247-12.495a9.538,9.538,0,0,0-2.148-3.148,5.271,5.271,0,0,0-3.026-1.049h-1.074l-.537,16.3Zm13.2-23.5,5.247.171a17.59,17.59,0,0,0,3.295-.439,3.3,3.3,0,0,0,2.05-1.2,3.612,3.612,0,0,0,.854-2.44,3.661,3.661,0,0,0-1.123-3,7.321,7.321,0,0,0-4.612-1.2l-5.442-.171Z" transform="translate(119.436 -128.325)" fill="#fff"/>
      <path id="Path_67" data-name="Path 67" d="M399.238,396.214a3.221,3.221,0,0,1-2.44-1.049L375.908,372.3l-22.549,20.6a3.2,3.2,0,0,1-4.515-.2l-20.89-22.867L305.4,390.43a3.2,3.2,0,0,1-4.515-.2l-20.914-22.867-22.525,20.6a3.246,3.246,0,0,1-2.44.83,3.3,3.3,0,0,1-2.221-1.049L231.9,364.9l-22.525,20.573a3.221,3.221,0,0,1-4.539-.2,3.172,3.172,0,0,1,.22-4.515L229.947,358a3.221,3.221,0,0,1,4.539.2l20.89,22.867,22.525-20.6a3.344,3.344,0,0,1,2.318-.83,3.246,3.246,0,0,1,2.221,1.049l20.89,22.867,22.549-20.6a3.172,3.172,0,0,1,4.515.2l20.89,22.867,22.549-20.6a3.2,3.2,0,0,1,4.515.2l23.33,25.331a3.221,3.221,0,0,1-2.44,5.369Z" transform="translate(15.851 -87.41)" fill="#fff"/>
      <path id="Path_68" data-name="Path 68" d="M142.8,407.935l-15.277-7.272L113.91,334.357l7.394-8.127Z" transform="translate(-113.91 2.146)" fill="#2498fc"/>
      <path id="Path_69" data-name="Path 69" d="M138.44,407.935,158.72,396.1l-17.376-54.616-24.4-15.253Z" transform="translate(-109.546 2.146)" fill="#2498fc"/>
      <path id="Path_70" data-name="Path 70" d="M138.44,407.935,158.72,396.1l-17.376-54.616-24.4-15.253Z" transform="translate(-109.546 2.146)" opacity="0.2"/>
      <path id="Path_71" data-name="Path 71" d="M270,457.111H268.32a12.206,12.206,0,1,1,.659-24.4c18.791.61,58.57-10.933,81.315-32.994a12.2,12.2,0,0,1,4.881-2.929c38.534-11.568,52.859,11.787,53.445,12.788l-20.988,12.422a2.433,2.433,0,0,0,.269.439c-.22-.317-5.686-7.321-23.062-3.026C336.31,445.421,292.529,457.111,270,457.111Z" transform="translate(91.396 -34.95)" fill="#263238"/>
      <path id="Path_72" data-name="Path 72" d="M289.68,421.311,245.24,418.5l-3.49-81.924,59.717,2.221Z" transform="translate(70.232 17.054)" fill="#2498fc"/>
      <path id="Path_73" data-name="Path 73" d="M261.39,420l10.4-10.347,6.443-51.078-5.052-21.085Z" transform="translate(98.521 18.365)" fill="#2498fc"/>
      <path id="Path_74" data-name="Path 74" d="M261.39,420l10.4-10.347,6.443-51.078-5.052-21.085Z" transform="translate(98.521 18.365)" opacity="0.2"/>
      <path id="Path_75" data-name="Path 75" d="M420.318,542.966a7.32,7.32,0,0,1-4.417-1.489c-25.38-19.279-59.668-53.518-72.822-86.537a6.447,6.447,0,0,1-.415-1.489c-6.418-38.168-12.544-118.482-12.812-121.874a7.342,7.342,0,1,1,14.643-1.1c0,.805,6.272,81.9,12.519,119.751,13.129,32.116,48.808,65.086,67.794,79.582a7.321,7.321,0,0,1-4.442,13.154Z" transform="translate(197.105 -135.618)" fill="#263238"/>
      <path id="Path_76" data-name="Path 76" d="M393.831,427.366c-5.662,0-12.08-2.562-19.084-7.614a7.322,7.322,0,0,1,8.59-11.86c6.052,4.368,9.347,4.881,10.494,4.881a7.321,7.321,0,0,1,0,14.642Z" transform="translate(257.441 -16.334)" fill="#263238"/>
      <path id="Path_77" data-name="Path 77" d="M374,422.5c7.834-23.257,39.949-18.669,51.029-15.2a116.579,116.579,0,0,1,27.015,11.714c5.979,3.9,6.077,10.469-1.9,14.2-9.762,4.588-34.556.512-34.556.512,12.788,5.589,0,14.642-22.476,5.759C385.814,436.6,371.245,431.037,374,422.5Z" transform="translate(260.235 -19.296)" fill="#2498fe"/>
      <path id="Path_78" data-name="Path 78" d="M368.417,354.253c-2.9,19.767-19.279,34.337-32.6,32.384s-13.861-19.523-10.957-39.388,8.175-34.166,21.5-32.213S371.321,334.559,368.417,354.253Z" transform="translate(187.874 -148.336)" fill="#263238"/>
      <circle id="Ellipse_2" data-name="Ellipse 2" cx="2.001" cy="2.001" r="2.001" transform="translate(232.205 123.065)" fill="#263238"/>
      <path id="Path_79" data-name="Path 79" d="M220.572,304.961a2,2,0,1,1-2-2A2,2,0,0,1,220.572,304.961Z" transform="translate(33.962 -165.473)" fill="#263238"/>
      <path id="Path_80" data-name="Path 80" d="M221.475,401.991a2,2,0,1,1-.925-1.916A2,2,0,0,1,221.475,401.991Z" transform="translate(35.28 -26.027)" fill="#263238"/>
      <path id="Path_81" data-name="Path 81" d="M229,407.771a2,2,0,1,1-2-2,2,2,0,0,1,2,2Z" transform="translate(46.105 -17.384)" fill="#263238"/>
    </g>
    <g id="Robot_Parts" data-name="Robot Parts" transform="translate(183.214 855.166)">
      <path id="Path_82" data-name="Path 82" d="M93.219,432.3a23.476,23.476,0,0,1-17.888-9.64,1.22,1.22,0,1,1,2-1.391c4.564,6.589,14.642,10.079,19.035,8a3.174,3.174,0,0,0,1.147-.83,14.764,14.764,0,0,1-8.59-10.933c-.561-3.1-1-7.321,1.537-7.858,3.514-.781,8.1,7.687,9.762,14.106a9.224,9.224,0,0,1,.317,3.27,10.4,10.4,0,0,0,4.344.342,4.734,4.734,0,0,0,3.368-1.806,14.3,14.3,0,0,1-5.637-10.225c-.927-6.687-.22-7.834.512-8.419a1.611,1.611,0,0,1,1.684-.171c2.611,1.1,5.759,10.567,6.369,15.936a6.491,6.491,0,0,1,0,1.684,9.542,9.542,0,0,0,3.295.635,10.469,10.469,0,0,0,5.881-1.537c-.342-.22-.659-.464-.976-.708-2.44-2.172-3.563-5.637-3.124-10.567.317-3.831,1.2-5.93,2.733-6.589a2.758,2.758,0,0,1,2.953.586,16.888,16.888,0,0,1,4.222,13.569,7.319,7.319,0,0,1-1.245,2.806c4.49.781,10.787-.488,16.229-1.83a1.255,1.255,0,0,1,.586,2.44c-6.614,1.635-13.74,2.977-18.767,1.513a13.887,13.887,0,0,1-8.541,2.831,11.789,11.789,0,0,1-4-.757,6.833,6.833,0,0,1-5.174,3.1,13.008,13.008,0,0,1-5.467-.464,5.392,5.392,0,0,1-2.44,2.172,10.152,10.152,0,0,1-4.124.732Zm-2.1-20.207a10.542,10.542,0,0,0,.2,5,12.324,12.324,0,0,0,6.931,9.029,7.834,7.834,0,0,0-.293-1.708C96.05,417.433,92.389,412.625,91.12,412.089Zm13.593-2.123a34.629,34.629,0,0,0,.415,5.027,12.641,12.641,0,0,0,3.709,7.858,38.363,38.363,0,0,0-4.124-12.885Zm15.35-2.123h0s-.927.464-1.269,4.539.366,6.882,2.27,8.517a6.4,6.4,0,0,0,1.464.9,5.271,5.271,0,0,0,1.318-2.441,15.277,15.277,0,0,0-2.9-10.811C120.43,407.94,120.137,407.842,120.063,407.842Z" transform="translate(-75.075 -405.399)" fill="#263238"/>
      <path id="Path_83" data-name="Path 83" d="M233.047,382.545l6.614-11.47-6.614-11.445H225.97l4,11.445-4,11.47Z" transform="translate(142.275 -337.224)" fill="#263238"/>
      <path id="Path_84" data-name="Path 84" d="M234.558,430.1a5.979,5.979,0,1,1,0-11.934l-11.226-2.245-3,9.078,5.027,7.663Z" transform="translate(134.151 -390.244)" fill="#263238"/>
      <path id="Path_85" data-name="Path 85" d="M238.285,414.58H225.034l-6.613,11.47,6.613,11.47h13.251l6.614-11.47Zm-6.614,17.449a5.979,5.979,0,1,1,5.955-5.979,5.979,5.979,0,0,1-5.955,5.979Z" transform="translate(131.4 -392.174)" fill="#2498fc"/>
      <path id="Path_86" data-name="Path 86" d="M420.785,369.364l-4.905-8.517,4.905-8.517h5.247l-2.953,8.517,2.953,8.517Z" transform="translate(415.823 -347.739)" fill="#407bff"/>
      <path id="Path_87" data-name="Path 87" d="M419.9,418.8a4.442,4.442,0,1,0,0-8.859l8.346-1.659,2.221,6.736-3.709,5.686Z" transform="translate(421.613 -401.249)" fill="#407bff"/>
      <path id="Path_88" data-name="Path 88" d="M422.491,407.28h9.762l4.881,8.517-4.881,8.517h-9.762L417.61,415.8Zm4.881,12.958a4.421,4.421,0,1,1,.024,0Z" transform="translate(418.314 -402.689)" fill="#263238"/>
      <path id="Path_89" data-name="Path 89" d="M346.083,425.065h11.031a5.223,5.223,0,0,0,5.2-5.223h0a5.222,5.222,0,0,0-5.2-5.223H346.083a5.222,5.222,0,0,0-5.223,5.222h0a5.223,5.223,0,0,0,5.223,5.223Z" transform="translate(307.763 -392.116)" fill="#263238"/>
      <path id="Path_90" data-name="Path 90" d="M336.448,418.19a10.884,10.884,0,1,1,4.881,15.082,11.25,11.25,0,0,1-4.881-15.082Z" transform="translate(299.656 -395.101)" fill="#407bff"/>
      <rect id="Rectangle_9" data-name="Rectangle 9" width="3.343" height="24.648" transform="translate(642.103 39.594) rotate(-154.76)" fill="#263238"/>
    </g>
  </g>
</svg>
