<svg xmlns="http://www.w3.org/2000/svg" width="15.366" height="13" viewBox="0 0 15.366 13">
  <g id="Icon_ionic-ios-arrow-round-back" data-name="Icon ionic-ios-arrow-round-back" transform="translate(-7.382 -10.752)" fill="#09529b">
    <path d="M 12.63730144500732 23.50165367126465 C 12.3872013092041 23.50165367126465 12.15480136871338 23.38309478759766 11.98291110992432 23.16781425476074 L 7.870731353759766 17.98000526428223 L 7.867741584777832 17.97622489929199 L 7.864891529083252 17.97233390808105 C 7.791891574859619 17.8725643157959 7.736621379852295 17.76743507385254 7.695921421051025 17.65092468261719 C 7.653521537780762 17.52955436706543 7.632031440734863 17.39668464660645 7.632031440734863 17.25599479675293 C 7.632031440734863 16.98991394042969 7.715911388397217 16.73393440246582 7.868231296539307 16.53520393371582 L 11.98081588745117 11.34681415557861 C 12.147216796875 11.12739753723145 12.38663864135742 11.00165462493896 12.63830089569092 11.00165462493896 C 12.8832311630249 11.00165462493896 13.11123180389404 11.11597442626953 13.28028106689453 11.3235445022583 C 13.60975170135498 11.72811412811279 13.61327171325684 12.37025451660156 13.28828144073486 12.78543472290039 L 10.58104705810547 16.18730354309082 L 21.60408210754395 16.18730354309082 C 22.09686088562012 16.18730354309082 22.49777221679688 16.66391372680664 22.49777221679688 17.2497444152832 C 22.49777221679688 17.83557510375977 22.09686088562012 18.31218528747559 21.60408210754395 18.31218528747559 L 10.58157730102539 18.31218528747559 L 13.29190158843994 21.71232414245605 C 13.61188125610352 22.12108421325684 13.60969161987305 22.76156425476074 13.28828144073486 23.17217445373535 C 13.1142110824585 23.38598442077637 12.8840913772583 23.50165367126465 12.63730144500732 23.50165367126465 Z" stroke="none"/>
    <path d="M 12.63830184936523 11.25164985656738 C 12.47038650512695 11.25164985656738 12.30291938781738 11.33450126647949 12.17828178405762 11.50016403198242 L 8.066652297973633 16.68728446960449 C 7.946901321411133 16.84352493286133 7.882030487060547 17.04351425170898 7.882030487060547 17.25599479675293 C 7.882030487060547 17.36223411560059 7.897001266479492 17.46847534179688 7.931930541992188 17.56847381591797 C 7.966861724853516 17.66846466064453 8.011760711669922 17.74970436096191 8.066652297973633 17.82470512390137 L 12.17828178405762 23.01182556152344 C 12.3061580657959 23.17198181152344 12.47180938720703 23.25165176391602 12.63729667663574 23.25165176391602 C 12.80113792419434 23.25165176391602 12.96481895446777 23.17352676391602 13.09142112731934 23.01807403564453 C 13.34091186523438 22.69934463500977 13.34590148925781 22.18688583374023 13.09641075134277 21.86815452575684 L 10.06259155273438 18.06218528747559 L 21.60408020019531 18.06218528747559 C 21.9583625793457 18.06218528747559 22.24777221679688 17.69971466064453 22.24777221679688 17.2497444152832 C 22.24777221679688 16.79977416992188 21.9583625793457 16.43730354309082 21.60408020019531 16.43730354309082 L 10.06259155273438 16.43730354309082 L 13.09142112731934 12.63133430480957 C 13.34091186523438 12.3126049041748 13.34091186523438 11.79389381408691 13.0864315032959 11.48141479492188 C 12.9616756439209 11.32822608947754 12.79978370666504 11.25164985656738 12.63830184936523 11.25164985656738 M 12.63830184936523 10.75165367126465 C 12.9552116394043 10.75165367126465 13.25986099243164 10.90256500244141 13.47414207458496 11.16568374633789 C 13.87429046630859 11.65703392028809 13.87912178039551 12.43620491027832 13.48514175415039 12.93952369689941 L 11.09949684143066 15.93730354309082 L 21.60408020019531 15.93730354309082 C 22.23471069335938 15.93730354309082 22.74777221679688 16.52606391906738 22.74777221679688 17.2497444152832 C 22.74777221679688 17.97342491149902 22.23471069335938 18.56218338012695 21.60408020019531 18.56218338012695 L 11.10056304931641 18.56218338012695 L 13.48739051818848 21.55649566650391 C 13.88282203674316 22.06162452697754 13.88067054748535 22.82097434997559 13.48514175415039 23.32626342773438 L 13.4821720123291 23.33007431030273 L 13.47911071777344 23.33381462097168 C 13.26285171508789 23.5993537902832 12.95602226257324 23.75165557861328 12.63730049133301 23.75165557861328 C 12.31438064575195 23.75165557861328 12.00465202331543 23.595703125 11.78755187988281 23.32380485534668 L 7.674821853637695 18.13529396057129 L 7.668840408325195 18.12776374816895 L 7.663171768188477 18.12000465393066 C 7.575370788574219 18.00003433227539 7.508880615234375 17.87356376647949 7.459901809692383 17.73337364196777 C 7.408231735229492 17.58543395996094 7.382030487060547 17.42482376098633 7.382030487060547 17.25599479675293 C 7.382030487060547 16.93523406982422 7.484231948852539 16.625244140625 7.669811248779297 16.38312530517578 L 7.672281265258789 16.37988471984863 L 7.674821853637695 16.37669372558594 L 11.78298759460449 11.19394302368164 C 11.99703216552734 10.91276168823242 12.30838966369629 10.75165367126465 12.63830184936523 10.75165367126465 Z" stroke="none" fill="#09529b"/>
  </g>
</svg>
